HIERARCHY
ROOT Hip
{
	OFFSET	0.0000	0.0000	0.0000
	CHANNELS 6 Xposition Yposition Zposition Xrotation Yrotation Zrotation
	JOINT LowerSpine
	{
		OFFSET	0.0000	10.0322	-5.4289
		CHANNELS 3 Xrotation Yrotation Zrotation
		JOINT MiddleSpine
		{
			OFFSET	0.0000	9.1552	0.4782
			CHANNELS 3 Xrotation Yrotation Zrotation
			JOINT Chest
			{
				OFFSET	0.0000	11.3285	-2.5216
				CHANNELS 3 Xrotation Yrotation Zrotation
				JOINT Neck
				{
					OFFSET	0.0000	25.5283	-0.5309
					CHANNELS 3 Xrotation Yrotation Zrotation
					JOINT Head
					{
						OFFSET	0.0000	14.4161	3.9212
						CHANNELS 3 Xrotation Yrotation Zrotation
						End Site
						{
							OFFSET	0.0001	20.1431	0.6013
						}
					}
				}
				JOINT LClavicle
				{
					OFFSET	2.5773	24.6361	8.4405
					CHANNELS 3 Xrotation Yrotation Zrotation
					JOINT LShoulder
					{
						OFFSET	15.0569	3.5337	-5.7178
						CHANNELS 3 Xrotation Yrotation Zrotation
						JOINT LForearm
						{
							OFFSET	31.9839	-0.1136	-0.2771
							CHANNELS 3 Xrotation Yrotation Zrotation
							JOINT LHand
							{
								OFFSET	26.6813	0.0774	-0.1598
								CHANNELS 3 Xrotation Yrotation Zrotation
								JOINT LFinger1
								{
									OFFSET	10.3409	0.9043	2.8721
									CHANNELS 3 Xrotation Yrotation Zrotation
									JOINT LFinger11
									{
										OFFSET	3.8680	-0.9432	0.6816
										CHANNELS 3 Xrotation Yrotation Zrotation
										JOINT LFinger12
										{
											OFFSET	2.6406	-0.6442	0.4655
											CHANNELS 3 Xrotation Yrotation Zrotation
											End Site
											{
												OFFSET	1.8790	-0.5609	0.3048
											}
										}
									}
								}
								JOINT LFinger2
								{
									OFFSET	10.4952	1.0444	0.2501
									CHANNELS 3 Xrotation Yrotation Zrotation
									JOINT LFinger21
									{
										OFFSET	4.7826	0.0133	-0.0282
										CHANNELS 3 Xrotation Yrotation Zrotation
										JOINT LFinger22
										{
											OFFSET	2.6509	0.0081	-0.0161
											CHANNELS 3 Xrotation Yrotation Zrotation
											End Site
											{
												OFFSET	2.3811	-0.1681	0.0032
											}
										}
									}
								}
								JOINT LFinger3
								{
									OFFSET	9.9464	0.6969	-2.3531
									CHANNELS 3 Xrotation Yrotation Zrotation
									JOINT LFinger31
									{
										OFFSET	4.3397	-0.2197	-0.2717
										CHANNELS 3 Xrotation Yrotation Zrotation
										JOINT LFinger32
										{
											OFFSET	2.4729	-0.1244	-0.1554
											CHANNELS 3 Xrotation Yrotation Zrotation
											End Site
											{
												OFFSET	2.1865	-0.2688	-0.1034
											}
										}
									}
								}
								JOINT LFinger4
								{
									OFFSET	9.2298	-0.7015	-4.0639
									CHANNELS 3 Xrotation Yrotation Zrotation
									JOINT LFinger41
									{
										OFFSET	2.6693	-0.5567	-0.7368
										CHANNELS 3 Xrotation Yrotation Zrotation
										JOINT LFinger42
										{
											OFFSET	1.9574	-0.4077	-0.5407
											CHANNELS 3 Xrotation Yrotation Zrotation
											End Site
											{
												OFFSET	1.7374	-0.4774	-0.3986
											}
										}
									}
								}
								JOINT LFinger0
								{
									OFFSET	2.1391	-1.6191	1.6216
									CHANNELS 3 Xrotation Yrotation Zrotation
									JOINT LFinger01
									{
										OFFSET	3.9827	-1.3081	3.0028
										CHANNELS 3 Xrotation Yrotation Zrotation
										JOINT LFinger02
										{
											OFFSET	2.6226	-0.9384	1.8895
											CHANNELS 3 Xrotation Yrotation Zrotation
											End Site
											{
												OFFSET	1.9286	-0.6639	1.3206
											}
										}
									}
								}
							}
						}
					}
				}
				JOINT RClavicle
				{
					OFFSET	-2.5773	24.6361	8.4405
					CHANNELS 3 Xrotation Yrotation Zrotation
					JOINT RShoulder
					{
						OFFSET	-15.0596	3.5343	-5.7188
						CHANNELS 3 Xrotation Yrotation Zrotation
						JOINT RForearm
						{
							OFFSET	-31.9839	-0.1136	-0.2771
							CHANNELS 3 Xrotation Yrotation Zrotation
							JOINT RHand
							{
								OFFSET	-26.6813	0.0774	-0.1598
								CHANNELS 3 Xrotation Yrotation Zrotation
								JOINT RFinger1
								{
									OFFSET	-10.3409	0.9043	2.8721
									CHANNELS 3 Xrotation Yrotation Zrotation
									JOINT RFinger11
									{
										OFFSET	-3.8680	-0.9432	0.6816
										CHANNELS 3 Xrotation Yrotation Zrotation
										JOINT RFinger12
										{
											OFFSET	-2.6406	-0.6442	0.4655
											CHANNELS 3 Xrotation Yrotation Zrotation
											End Site
											{
												OFFSET	-1.8790	-0.5609	0.3048
											}
										}
									}
								}
								JOINT RFinger2
								{
									OFFSET	-10.4952	1.0444	0.2501
									CHANNELS 3 Xrotation Yrotation Zrotation
									JOINT RFinger21
									{
										OFFSET	-4.7826	0.0133	-0.0282
										CHANNELS 3 Xrotation Yrotation Zrotation
										JOINT RFinger22
										{
											OFFSET	-2.6509	0.0081	-0.0161
											CHANNELS 3 Xrotation Yrotation Zrotation
											End Site
											{
												OFFSET	-2.3811	-0.1681	0.0032
											}
										}
									}
								}
								JOINT RFinger3
								{
									OFFSET	-9.9464	0.6969	-2.3531
									CHANNELS 3 Xrotation Yrotation Zrotation
									JOINT RFinger31
									{
										OFFSET	-4.3397	-0.2197	-0.2717
										CHANNELS 3 Xrotation Yrotation Zrotation
										JOINT RFinger32
										{
											OFFSET	-2.4729	-0.1244	-0.1554
											CHANNELS 3 Xrotation Yrotation Zrotation
											End Site
											{
												OFFSET	-2.1865	-0.2688	-0.1034
											}
										}
									}
								}
								JOINT RFinger4
								{
									OFFSET	-9.2298	-0.7015	-4.0639
									CHANNELS 3 Xrotation Yrotation Zrotation
									JOINT RFinger41
									{
										OFFSET	-2.6693	-0.5567	-0.7368
										CHANNELS 3 Xrotation Yrotation Zrotation
										JOINT RFinger42
										{
											OFFSET	-1.9574	-0.4077	-0.5407
											CHANNELS 3 Xrotation Yrotation Zrotation
											End Site
											{
												OFFSET	-1.7374	-0.4774	-0.3986
											}
										}
									}
								}
								JOINT RFinger0
								{
									OFFSET	-2.1391	-1.6191	1.6216
									CHANNELS 3 Xrotation Yrotation Zrotation
									JOINT RFinger01
									{
										OFFSET	-3.9827	-1.3081	3.0028
										CHANNELS 3 Xrotation Yrotation Zrotation
										JOINT RFinger02
										{
											OFFSET	-2.6226	-0.9384	1.8895
											CHANNELS 3 Xrotation Yrotation Zrotation
											End Site
											{
												OFFSET	-1.9286	-0.6639	1.3206
											}
										}
									}
								}
							}
						}
					}
				}
			}
		}
	}
	JOINT RThigh
	{
		OFFSET	-10.7320	4.5349	-0.8846
		CHANNELS 3 Xrotation Yrotation Zrotation
		JOINT RShin
		{
			OFFSET	-0.8587	-46.6794	0.0000
			CHANNELS 3 Xrotation Yrotation Zrotation
			JOINT RFoot
			{
				OFFSET	0.0000	-45.8363	0.0000
				CHANNELS 3 Xrotation Yrotation Zrotation
				JOINT RToe
				{
					OFFSET	0.0000	-5.0378	10.5347
					CHANNELS 3 Xrotation Yrotation Zrotation
					End Site
					{
						OFFSET	0.0000	0.0000	7.0673
					}
				}
			}
		}
	}
	JOINT LThigh
	{
		OFFSET	10.7319	4.5352	-0.8846
		CHANNELS 3 Xrotation Yrotation Zrotation
		JOINT LShin
		{
			OFFSET	0.8588	-46.6797	0.0000
			CHANNELS 3 Xrotation Yrotation Zrotation
			JOINT LFoot
			{
				OFFSET	0.0000	-45.8363	0.0000
				CHANNELS 3 Xrotation Yrotation Zrotation
				JOINT LToe
				{
					OFFSET	0.0000	-5.0378	10.5348
					CHANNELS 3 Xrotation Yrotation Zrotation
					End Site
					{
						OFFSET	0.0000	0.0000	7.0673
					}
				}
			}
		}
	}
}
MOTION
Frames:	8
Frame Time: 0.0333333000
	-0.0837	97.2407	2.8188	-6.502694	-0.000002	-3.758195	0.000000	0.000000	0.000000	4.177503	-1.177546	0.557553	13.981330	-3.719450	2.175554	0.000000	0.000000	0.000000	0.000000	0.000000	0.000000	0.000000	0.000000	-15.112800	9.886154	-24.064290	-57.834530	-3.255214	-29.454720	-0.009674	0.000000	0.000000	0.000000	0.000000	0.000000	0.000000	0.000000	0.000000	0.000000	0.000000	0.000000	0.000000	0.000000	0.000000	0.000000	0.000000	0.000000	0.000000	0.000000	0.000000	0.000000	0.000000	0.000000	0.000000	0.000000	0.000000	0.000000	0.000000	0.000000	0.000000	0.000000	0.000000	0.000000	0.000000	0.000000	0.000000	0.000000	0.000000	0.000000	0.000000	0.000000	0.000000	0.000000	0.000000	0.000000	0.000000	0.000000	0.000000	0.000000	0.000000	15.121570	6.652140	15.293540	65.382780	-13.504100	32.032100	-0.092823	0.000000	0.000000	0.000000	0.000000	0.000000	0.000000	0.000000	0.000000	0.000000	0.000000	0.000000	0.000000	0.000000	0.000000	0.000000	0.000000	0.000000	0.000000	0.000000	0.000000	0.000000	0.000000	0.000000	0.000000	0.000000	0.000000	0.000000	0.000000	0.000000	0.000000	0.000000	0.000000	0.000000	0.000000	0.000000	0.000000	0.000000	0.000000	0.000000	0.000000	0.000000	0.000000	0.000000	0.000000	0.000000	0.000000	0.000000	0.000000	9.470358	-1.846139	6.008125	5.708936	-1.994353	-0.242649	-0.374118	0.104974	0.050847	0.000000	0.000000	0.000000	8.302653	0.604757	6.196720	2.808726	-0.790815	-1.322536	-0.645018	1.156844	0.561887	-0.000001	0.000000	0.000000
	-0.5039	97.2304	3.0609	-6.843312	-0.210552	-3.642724	0.000000	0.000000	0.000000	4.216573	-1.003142	0.508137	14.102390	-3.197191	1.977394	0.000000	0.000000	0.000000	0.000000	0.000000	0.000000	0.000000	0.000000	-15.060090	9.968218	-24.228350	-57.700660	-3.066200	-29.473260	-0.009659	0.000000	0.000000	0.000000	0.000000	0.000000	0.000000	0.000000	0.000000	0.000000	0.000000	0.000000	0.000000	0.000000	0.000000	0.000000	0.000000	0.000000	0.000000	0.000000	0.000000	0.000000	0.000000	0.000000	0.000000	0.000000	0.000000	0.000000	0.000000	0.000000	0.000000	0.000000	0.000000	0.000000	0.000000	0.000000	0.000000	0.000000	0.000000	0.000000	0.000000	0.000000	0.000000	0.000000	0.000000	0.000000	0.000000	0.000000	0.000000	0.000000	0.000000	14.732300	6.810380	14.413040	66.262210	-14.277870	32.992550	-0.066868	0.000000	0.000000	0.000000	0.000000	0.000000	0.000000	0.000000	0.000000	0.000000	0.000000	0.000000	0.000000	0.000000	0.000000	0.000000	0.000000	0.000000	0.000000	0.000000	0.000000	0.000000	0.000000	0.000000	0.000000	0.000000	0.000000	0.000000	0.000000	0.000000	0.000000	0.000000	0.000000	0.000000	0.000000	0.000000	0.000000	0.000000	0.000000	0.000000	0.000000	0.000000	0.000000	0.000000	0.000000	0.000000	0.000000	0.000000	0.000000	9.700826	-2.743301	6.015564	6.401431	-2.791788	0.116833	-0.484978	0.142551	0.068965	0.000000	0.000000	0.000000	8.860135	0.644708	6.200539	2.819582	-1.063589	-1.228896	-0.818153	1.566586	0.762924	-0.000001	0.000000	0.000000
	-0.6499	97.2276	3.1541	-6.956144	-0.315551	-3.585197	0.000000	0.000000	0.000000	4.225986	-0.956370	0.497162	14.123760	-2.998886	1.913868	0.000000	0.000000	0.000000	0.000000	0.000000	0.000000	0.000000	0.000000	-15.045810	9.904827	-24.099470	-57.773770	-3.205545	-29.483940	-0.009123	0.000000	0.000000	0.000000	0.000000	0.000000	0.000000	0.000000	0.000000	0.000000	0.000000	0.000000	0.000000	0.000000	0.000000	0.000000	0.000000	0.000000	0.000000	0.000000	0.000000	0.000000	0.000000	0.000000	0.000000	0.000000	0.000000	0.000000	0.000000	0.000000	0.000000	0.000000	0.000000	0.000000	0.000000	0.000000	0.000000	0.000000	0.000000	0.000000	0.000000	0.000000	0.000000	0.000000	0.000000	0.000000	0.000000	0.000000	0.000000	0.000000	0.000000	14.553050	7.127592	14.098840	66.311100	-14.233070	33.573840	-0.051766	0.000000	0.000000	0.000000	0.000000	0.000000	0.000000	0.000000	0.000000	0.000000	0.000000	0.000000	0.000000	0.000000	0.000000	0.000000	0.000000	0.000000	0.000000	0.000000	0.000000	0.000000	0.000000	0.000000	0.000000	0.000000	0.000000	0.000000	0.000000	0.000000	0.000000	0.000000	0.000000	0.000000	0.000000	0.000000	0.000000	0.000000	0.000000	0.000000	0.000000	0.000000	0.000000	0.000000	0.000000	0.000000	0.000000	0.000000	0.000000	9.735708	-3.135460	5.970089	6.770812	-3.121239	0.303262	-0.604275	0.180567	0.087504	0.000000	0.000000	0.000000	9.084806	0.658430	6.165164	2.830050	-1.130020	-1.162920	-0.888977	1.739801	0.848705	-0.000001	0.000000	0.000000
	-0.7027	97.2297	3.1963	-6.998381	-0.375372	-3.542617	0.000000	0.000000	0.000000	4.221489	-0.922441	0.490050	14.110420	-2.914576	1.888173	0.000000	0.000000	0.000000	0.000000	0.000000	0.000000	0.000000	0.000000	-15.038890	9.898135	-23.915890	-57.852200	-3.325976	-29.545890	-0.008454	0.000000	0.000000	0.000000	0.000000	0.000000	0.000000	0.000000	0.000000	0.000000	0.000000	0.000000	0.000000	0.000000	0.000000	0.000000	0.000000	0.000000	0.000000	0.000000	0.000000	0.000000	0.000000	0.000000	0.000000	0.000000	0.000000	0.000000	0.000000	0.000000	0.000000	0.000000	0.000000	0.000000	0.000000	0.000000	0.000000	0.000000	0.000000	0.000000	0.000000	0.000000	0.000000	0.000000	0.000000	0.000000	0.000000	0.000000	0.000000	0.000000	0.000000	14.413150	7.526213	14.021970	65.801960	-13.742540	34.384410	-0.040770	0.000000	0.000000	0.000000	0.000000	0.000000	0.000000	0.000000	0.000000	0.000000	0.000000	0.000000	0.000000	0.000000	0.000000	0.000000	0.000000	0.000000	0.000000	0.000000	0.000000	0.000000	0.000000	0.000000	0.000000	0.000000	0.000000	0.000000	0.000000	0.000000	0.000000	0.000000	0.000000	0.000000	0.000000	0.000000	0.000000	0.000000	0.000000	0.000000	0.000000	0.000000	0.000000	0.000000	0.000000	0.000000	0.000000	0.000000	0.000000	9.704882	-3.356902	5.908130	7.026328	-3.293862	0.409903	-0.682513	0.219218	0.106427	0.000000	0.000000	0.000000	9.155826	0.660586	6.127857	2.849465	-1.128694	-1.134067	-0.895647	1.823833	0.889806	-0.000001	0.000000	0.000000
	-0.7665	97.2421	3.2469	-7.031471	-0.384180	-3.516138	0.000000	0.000000	0.000000	4.215739	-0.885186	0.482410	14.095070	-2.827097	1.861793	0.000000	0.000000	0.000000	0.000000	0.000000	0.000000	0.000000	0.000000	-15.034900	9.897037	-23.754250	-57.900850	-3.421453	-29.612020	-0.007980	0.000000	0.000000	0.000000	0.000000	0.000000	0.000000	0.000000	0.000000	0.000000	0.000000	0.000000	0.000000	0.000000	0.000000	0.000000	0.000000	0.000000	0.000000	0.000000	0.000000	0.000000	0.000000	0.000000	0.000000	0.000000	0.000000	0.000000	0.000000	0.000000	0.000000	0.000000	0.000000	0.000000	0.000000	0.000000	0.000000	0.000000	0.000000	0.000000	0.000000	0.000000	0.000000	0.000000	0.000000	0.000000	0.000000	0.000000	0.000000	0.000000	0.000000	14.241800	7.748764	14.240880	64.840030	-13.040970	35.720160	-0.028722	0.000000	0.000000	0.000000	0.000000	0.000000	0.000000	0.000000	0.000000	0.000000	0.000000	0.000000	0.000000	0.000000	0.000000	0.000000	0.000000	0.000000	0.000000	0.000000	0.000000	0.000000	0.000000	0.000000	0.000000	0.000000	0.000000	0.000000	0.000000	0.000000	0.000000	0.000000	0.000000	0.000000	0.000000	0.000000	0.000000	0.000000	0.000000	0.000000	0.000000	0.000000	0.000000	0.000000	0.000000	0.000000	0.000000	0.000000	0.000000	9.616756	-3.581500	5.849576	7.400246	-3.462678	0.575002	-0.708452	0.194803	0.094664	0.000000	0.000000	0.000000	9.218827	0.665680	6.134623	2.874037	-1.128347	-1.122785	-0.870186	1.875264	0.914378	-0.000001	0.000000	0.000000
	-0.8455	97.2606	3.3054	-7.069147	-0.338076	-3.513915	0.000000	0.000000	0.000000	4.212284	-0.865637	0.478467	14.077650	-2.736438	1.834697	0.000000	0.000000	0.000000	0.000000	0.000000	0.000000	0.000000	0.000000	-15.029640	9.916883	-23.620360	-57.908850	-3.482622	-29.671460	-0.007758	0.000000	0.000000	0.000000	0.000000	0.000000	0.000000	0.000000	0.000000	0.000000	0.000000	0.000000	0.000000	0.000000	0.000000	0.000000	0.000000	0.000000	0.000000	0.000000	0.000000	0.000000	0.000000	0.000000	0.000000	0.000000	0.000000	0.000000	0.000000	0.000000	0.000000	0.000000	0.000000	0.000000	0.000000	0.000000	0.000000	0.000000	0.000000	0.000000	0.000000	0.000000	0.000000	0.000000	0.000000	0.000000	0.000000	0.000000	0.000000	0.000000	0.000000	14.072240	7.478934	14.868860	63.520370	-12.381200	37.090760	-0.026568	0.000000	0.000000	0.000000	0.000000	0.000000	0.000000	0.000000	0.000000	0.000000	0.000000	0.000000	0.000000	0.000000	0.000000	0.000000	0.000000	0.000000	0.000000	0.000000	0.000000	0.000000	0.000000	0.000000	0.000000	0.000000	0.000000	0.000000	0.000000	0.000000	0.000000	0.000000	0.000000	0.000000	0.000000	0.000000	0.000000	0.000000	0.000000	0.000000	0.000000	0.000000	0.000000	0.000000	0.000000	0.000000	0.000000	0.000000	0.000000	9.459145	-3.806101	5.812440	7.919405	-3.628915	0.738586	-0.728033	0.167163	0.081216	0.000000	0.000000	0.000000	9.275521	0.673710	6.182543	2.907015	-1.129307	-1.136781	-0.842391	1.924915	0.938030	-0.000001	0.000000	0.000000
	-0.9298	97.2728	3.3629	-7.098703	-0.333334	-3.492275	0.000000	0.000000	0.000000	4.207603	-0.840384	0.473381	14.057960	-2.642709	1.806835	0.000000	0.000000	0.000000	0.000000	0.000000	0.000000	0.000000	0.000000	-15.025380	9.993732	-23.579610	-57.836220	-3.417431	-29.682790	-0.008116	0.000000	0.000000	0.000000	0.000000	0.000000	0.000000	0.000000	0.000000	0.000000	0.000000	0.000000	0.000000	0.000000	0.000000	0.000000	0.000000	0.000000	0.000000	0.000000	0.000000	0.000000	0.000000	0.000000	0.000000	0.000000	0.000000	0.000000	0.000000	0.000000	0.000000	0.000000	0.000000	0.000000	0.000000	0.000000	0.000000	0.000000	0.000000	0.000000	0.000000	0.000000	0.000000	0.000000	0.000000	0.000000	0.000000	0.000000	0.000000	0.000000	0.000000	13.872880	6.578512	15.818570	61.998950	-12.027800	37.912750	-0.028570	0.000000	0.000000	0.000000	0.000000	0.000000	0.000000	0.000000	0.000000	0.000000	0.000000	0.000000	0.000000	0.000000	0.000000	0.000000	0.000000	0.000000	0.000000	0.000000	0.000000	0.000000	0.000000	0.000000	0.000000	0.000000	0.000000	0.000000	0.000000	0.000000	0.000000	0.000000	0.000000	0.000000	0.000000	0.000000	0.000000	0.000000	0.000000	0.000000	0.000000	0.000000	0.000000	0.000000	0.000000	0.000000	0.000000	0.000000	0.000000	9.299005	-4.026536	5.794122	8.439977	-3.796296	0.838788	-0.794105	0.182938	0.089023	0.000000	0.000000	0.000000	9.331932	0.681430	6.226310	2.945009	-1.131028	-1.158757	-0.843430	1.984484	0.967075	-0.000001	0.000000	0.000000
	-1.0182	97.2797	3.4212	-7.115747	-0.293890	-3.456587	0.000000	0.000000	0.000000	4.203696	-0.820254	0.469332	14.035790	-2.546163	1.778257	0.000000	0.000000	0.000000	0.000000	0.000000	0.000000	0.000000	0.000000	-15.016060	10.123870	-23.676600	-57.662540	-3.210827	-29.639770	-0.009062	0.000000	0.000000	0.000000	0.000000	0.000000	0.000000	0.000000	0.000000	0.000000	0.000000	0.000000	0.000000	0.000000	0.000000	0.000000	0.000000	0.000000	0.000000	0.000000	0.000000	0.000000	0.000000	0.000000	0.000000	0.000000	0.000000	0.000000	0.000000	0.000000	0.000000	0.000000	0.000000	0.000000	0.000000	0.000000	0.000000	0.000000	0.000000	0.000000	0.000000	0.000000	0.000000	0.000000	0.000000	0.000000	0.000000	0.000000	0.000000	0.000000	0.000000	13.586530	5.144096	16.987030	60.268680	-11.972450	38.116170	-0.029610	0.000000	0.000000	0.000000	0.000000	0.000000	0.000000	0.000000	0.000000	0.000000	0.000000	0.000000	0.000000	0.000000	0.000000	0.000000	0.000000	0.000000	0.000000	0.000000	0.000000	0.000000	0.000000	0.000000	0.000000	0.000000	0.000000	0.000000	0.000000	0.000000	0.000000	0.000000	0.000000	0.000000	0.000000	0.000000	0.000000	0.000000	0.000000	0.000000	0.000000	0.000000	0.000000	0.000000	0.000000	0.000000	0.000000	0.000000	0.000000	9.166232	-4.240346	5.781446	8.887625	-3.960377	0.919314	-0.865149	0.185972	0.090676	0.000000	0.000000	0.000000	9.369617	0.687522	6.266878	2.989285	-1.133318	-1.185579	-0.856534	2.015245	0.982362	-0.000001	0.000000	0.000000
